<?xml version="1.0" encoding="utf-8"?>
<!-- Generator: Adobe Illustrator 24.2.3, SVG Export Plug-In . SVG Version: 6.00 Build 0)  -->
<svg version="1.1" id="icon_brand_logo" xmlns="http://www.w3.org/2000/svg" xmlns:xlink="http://www.w3.org/1999/xlink" x="0px"
	 y="0px" viewBox="0 0 28.3 28.3" style="enable-background:new 0 0 28.3 28.3;" xml:space="preserve">
<style type="text/css">
	.st0{fill:#58C079;}
</style>
<path class="st0" d="M23.2,10.4c-0.5-1.2-1.2-2.2-2.1-3.1c-0.9-0.9-1.9-1.6-3.1-2.1c-1.2-0.5-2.4-0.8-3.8-0.8
	c-1.3,0-2.6,0.2-3.8,0.7S8.3,6.3,7.3,7.2c-0.9,0.9-1.6,1.9-2.1,3.1c-0.5,1.2-0.8,2.5-0.8,3.8c0,1.3,0.2,2.6,0.7,3.8s1.2,2.2,2.1,3.2
	c0.9,0.9,1.9,1.6,3.1,2.1c1.2,0.5,2.4,0.8,3.8,0.8l9.7,0.1l0.1-9.8C24,12.8,23.7,11.6,23.2,10.4z M21.9,22l-7.8-0.1
	c-1.1,0-2.1-0.2-3-0.6s-1.8-1-2.5-1.7c-0.7-0.7-1.3-1.6-1.7-2.5c-0.4-1-0.6-2-0.6-3C6.3,13,6.6,12,7,11s1-1.8,1.7-2.5
	c0.7-0.7,1.6-1.2,2.5-1.7c1-0.4,2-0.6,3-0.6c1.1,0,2.1,0.2,3,0.6c0.9,0.4,1.8,1,2.5,1.7c0.7,0.7,1.2,1.5,1.7,2.5
	c0.4,0.9,0.6,2,0.6,3L21.9,22z"/>
<path class="st0" d="M20.1,21.1c-0.2,0-0.5-0.1-0.6-0.3L7.6,8.8c-0.4-0.4-0.3-0.9,0-1.2c0.4-0.4,0.9-0.3,1.2,0l11.9,12.1
	c0.4,0.4,0.3,0.9,0,1.2C20.6,21,20.4,21.1,20.1,21.1z"/>
<path class="st0" d="M13.8,15.2c-0.1,0-0.2,0-0.3-0.1C13.1,15,12.8,14.5,13,14l1.6-4.4c0.2-0.5,0.7-0.7,1.1-0.5
	c0.5,0.2,0.7,0.7,0.5,1.1l-1.6,4.4C14.6,15,14.2,15.2,13.8,15.2z M16.9,19.3h-5.5c-0.5,0-0.9-0.4-0.9-0.9c0-0.5,0.4-0.9,0.9-0.9h5.5
	c0.5,0,0.9,0.4,0.9,0.9C17.8,18.9,17.5,19.3,16.9,19.3z"/>
</svg>
