<?xml version="1.0" encoding="utf-8"?>
<!-- Generator: Adobe Illustrator 24.2.3, SVG Export Plug-In . SVG Version: 6.00 Build 0)  -->
<svg version="1.1" id="레이어_1" xmlns="http://www.w3.org/2000/svg" xmlns:xlink="http://www.w3.org/1999/xlink" x="0px"
	 y="0px" viewBox="0 0 20 20" style="enable-background:new 0 0 20 20;" xml:space="preserve">
<style type="text/css">
	.st0{fill:#1DC078;}
</style>
<g>
	<circle class="st0" cx="8" cy="18" r="2"/>
	<circle class="st0" cx="15" cy="18" r="2"/>
	<path class="st0" d="M17.5,4.5L17.5,4.5c-0.3-0.3-0.6-0.5-1-0.5H4.3L4.2,3.4C4,2.6,3.3,2,2.5,2h-1C1.2,2,1,2.2,1,2.5S1.2,3,1.5,3h1
		c0.3,0,0.6,0.3,0.7,0.6l1.7,10C5,14.4,5.7,15,6.5,15h10c0.3,0,0.5-0.2,0.5-0.5S16.8,14,16.5,14h-10c-0.3,0-0.6-0.3-0.7-0.6L5.6,12
		l10-0.9c0.8-0.1,1.5-0.7,1.6-1.5l0.7-4C17.9,5.2,17.8,4.8,17.5,4.5z"/>
</g>
</svg>
