<?xml version="1.0" encoding="utf-8"?>
<!-- Generator: Adobe Illustrator 24.2.3, SVG Export Plug-In . SVG Version: 6.00 Build 0)  -->
<svg version="1.1" id="레이어_1" xmlns="http://www.w3.org/2000/svg" xmlns:xlink="http://www.w3.org/1999/xlink" x="0px"
	 y="0px" viewBox="0 0 20 20" style="enable-background:new 0 0 20 20;" xml:space="preserve">
<style type="text/css">
	.st0{fill:#1DC078;}
</style>
<path class="st0" d="M17,15.7c-0.1,0.2-0.3,0.3-0.5,0.3h-3.8h-0.7h-1c0,0,0,0,0,0H8.1c0,0,0,0,0,0H7H6.5h-4c-0.2,0-0.4-0.1-0.5-0.3
	c-0.1-0.2,0-0.4,0.2-0.6C3.3,14.2,4,12.9,4,11.5v-3C4,6,5.7,3.9,8,3.2V2.5C8,1.7,8.7,1,9.5,1S11,1.7,11,2.5v0.7c2.3,0.7,4,2.8,4,5.3
	v3c0,1.4,0.7,2.7,1.8,3.6h0C17,15.2,17,15.5,17,15.7z M11,16.4H8H7c0,0,0,0.1,0,0.1C7,17.9,8.1,19,9.5,19c1.4,0,2.5-1.1,2.5-2.5
	c0,0,0-0.1,0-0.1H11z"/>
</svg>
